<svg width="50" height="50" viewBox="0 0 50 50" fill="none" xmlns="http://www.w3.org/2000/svg">
<path d="M25 3.125C12.9199 3.125 3.125 12.9199 3.125 25C3.125 37.0801 12.9199 46.875 25 46.875C37.0801 46.875 46.875 37.0801 46.875 25C46.875 12.9199 37.0801 3.125 25 3.125ZM25 43.1641C14.9707 43.1641 6.83594 35.0293 6.83594 25C6.83594 14.9707 14.9707 6.83594 25 6.83594C35.0293 6.83594 43.1641 14.9707 43.1641 25C43.1641 35.0293 35.0293 43.1641 25 43.1641Z" fill="black" fill-opacity="0.6"/>
<path d="M25 6.83594C14.9707 6.83594 6.83594 14.9707 6.83594 25C6.83594 35.0293 14.9707 43.1641 25 43.1641C35.0293 43.1641 43.1641 35.0293 43.1641 25C43.1641 14.9707 35.0293 6.83594 25 6.83594ZM33.0127 25.3027L22.3486 33.0615C22.2902 33.1035 22.2213 33.1286 22.1495 33.134C22.0777 33.1394 22.0058 33.1249 21.9417 33.0921C21.8776 33.0593 21.8238 33.0095 21.7862 32.9481C21.7486 32.8867 21.7286 32.8161 21.7285 32.7441V17.2363C21.7283 17.1642 21.748 17.0934 21.7856 17.0318C21.8231 16.9702 21.877 16.9202 21.9412 16.8873C22.0054 16.8545 22.0774 16.84 22.1494 16.8456C22.2213 16.8512 22.2903 16.8766 22.3486 16.9189L33.0127 24.6729C33.0631 24.7085 33.1042 24.7557 33.1325 24.8105C33.1609 24.8653 33.1757 24.9261 33.1757 24.9878C33.1757 25.0495 33.1609 25.1103 33.1325 25.1651C33.1042 25.2199 33.0631 25.2671 33.0127 25.3027V25.3027Z" fill="black" fill-opacity="0.1"/>
<path d="M33.0127 24.6728L22.3486 16.9189C22.2903 16.8766 22.2213 16.8512 22.1494 16.8456C22.0774 16.84 22.0054 16.8545 21.9412 16.8873C21.877 16.9202 21.8231 16.9702 21.7856 17.0318C21.748 17.0934 21.7283 17.1642 21.7285 17.2363V32.7441C21.7286 32.8161 21.7486 32.8867 21.7862 32.9481C21.8238 33.0095 21.8776 33.0593 21.9417 33.0921C22.0058 33.1249 22.0777 33.1394 22.1495 33.134C22.2213 33.1286 22.2902 33.1035 22.3486 33.0615L33.0127 25.3027C33.0631 25.2671 33.1042 25.2199 33.1325 25.1651C33.1609 25.1103 33.1757 25.0495 33.1757 24.9878C33.1757 24.9261 33.1609 24.8653 33.1325 24.8105C33.1042 24.7557 33.0631 24.7085 33.0127 24.6728V24.6728Z" fill="black" fill-opacity="0.6"/>
</svg>
